<svg width="16" height="21" viewBox="0 0 16 21" fill="none" xmlns="http://www.w3.org/2000/svg">
<path d="M7.8573 0.856934V2.82122M4.8573 10.6784V19.5176M10.8573 10.6784V19.5176M0.8573 14.6069L4.8573 12.6426M10.8573 12.6426L14.8573 14.6069M4.8573 16.5712H10.8573M5.8573 6.74979V6.75961M9.8573 6.74979V6.75961M1.8573 4.7855C1.8573 4.26454 2.06801 3.76492 2.44309 3.39655C2.81816 3.02817 3.32687 2.82122 3.8573 2.82122H11.8573C12.3877 2.82122 12.8964 3.02817 13.2715 3.39655C13.6466 3.76492 13.8573 4.26454 13.8573 4.7855V8.71408C13.8573 9.23504 13.6466 9.73466 13.2715 10.103C12.8964 10.4714 12.3877 10.6784 11.8573 10.6784H3.8573C3.32687 10.6784 2.81816 10.4714 2.44309 10.103C2.06801 9.73466 1.8573 9.23504 1.8573 8.71408V4.7855Z" stroke="white" stroke-width="1.71429" stroke-linecap="round" stroke-linejoin="round"/>
</svg>
