<svg width="56" height="50" viewBox="0 0 56 50" fill="none" xmlns="http://www.w3.org/2000/svg">
<path d="M28 4.58301V9.16634M21 27.4997V48.1247M35 27.4997V48.1247M11.6667 36.6663L21 32.083M35 32.083L44.3333 36.6663M21 41.2497H35M23.3333 18.333V18.3559M32.6667 18.333V18.3559M14 13.7497C14 12.5341 14.4917 11.3683 15.3668 10.5088C16.242 9.64923 17.429 9.16634 18.6667 9.16634H37.3333C38.571 9.16634 39.758 9.64923 40.6332 10.5088C41.5083 11.3683 42 12.5341 42 13.7497V22.9163C42 24.1319 41.5083 25.2977 40.6332 26.1572C39.758 27.0168 38.571 27.4997 37.3333 27.4997H18.6667C17.429 27.4997 16.242 27.0168 15.3668 26.1572C14.4917 25.2977 14 24.1319 14 22.9163V13.7497Z" stroke="#7D00FA" stroke-width="2" stroke-linecap="round" stroke-linejoin="round"/>
</svg>
