<svg width="17" height="22" viewBox="0 0 17 22" fill="none" xmlns="http://www.w3.org/2000/svg">
<path d="M5.33333 7.16667L7.16667 9L10.8333 5.33333M5.33333 14.5L7.16667 16.3333L10.8333 12.6667M0.75 18.7167V2.95C0.75 2.36652 0.981785 1.80695 1.39437 1.39437C1.80695 0.981785 2.36652 0.75 2.95 0.75H13.2167C13.8001 0.75 14.3597 0.981785 14.7723 1.39437C15.1849 1.80695 15.4167 2.36652 15.4167 2.95V18.7167C15.4167 19.3001 15.1849 19.8597 14.7723 20.2723C14.3597 20.6849 13.8001 20.9167 13.2167 20.9167H2.95C2.36652 20.9167 1.80695 20.6849 1.39437 20.2723C0.981785 19.8597 0.75 19.3001 0.75 18.7167Z" stroke="white" stroke-width="1.5" stroke-linecap="round" stroke-linejoin="round"/>
</svg>
