<svg width="15" height="15" viewBox="0 0 15 15" fill="none" xmlns="http://www.w3.org/2000/svg">
<path d="M13.75 7.9359C13.7488 8.85465 13.7419 9.63465 13.69 10.2753C13.6294 11.019 13.505 11.6403 13.2275 12.1559C13.1062 12.3819 12.9525 12.5889 12.7713 12.7703C12.2506 13.2909 11.5881 13.5265 10.7481 13.639C9.9275 13.7496 8.875 13.7496 7.53313 13.7496H7.46688C6.12438 13.7496 5.07313 13.7496 4.25188 13.639C3.4125 13.5265 2.74938 13.2909 2.22938 12.7703C1.76813 12.309 1.52938 11.7353 1.40313 11.0234C1.27813 10.3234 1.25563 9.4534 1.25125 8.37277C1.25 8.09777 1.24959 7.80673 1.25 7.49965V7.4659C1.25 6.1234 1.25 5.07215 1.36063 4.2509C1.47313 3.41152 1.70875 2.7484 2.22938 2.2284C2.75 1.7084 3.4125 1.47215 4.25188 1.35965C4.98188 1.26152 5.92063 1.25027 7.06375 1.24902C7.17945 1.24902 7.29042 1.29499 7.37223 1.3768C7.45404 1.45861 7.5 1.56957 7.5 1.68527C7.5 1.80097 7.45404 1.91194 7.37223 1.99375C7.29042 2.07556 7.17945 2.12152 7.06375 2.12152C5.90438 2.12277 5.0425 2.13277 4.36813 2.2234C3.625 2.3234 3.17688 2.5134 2.84563 2.84465C2.51438 3.1759 2.325 3.62465 2.225 4.3684C2.12313 5.12465 2.12188 6.11715 2.12188 7.49965V7.98965L2.70438 7.4809C2.95971 7.2575 3.29039 7.13948 3.62947 7.15074C3.96855 7.16199 4.29068 7.30168 4.53063 7.54152L7.02438 10.0353C7.21786 10.2289 7.47344 10.348 7.74611 10.3716C8.01878 10.3953 8.29107 10.322 8.515 10.1646L8.68875 10.0428C9.01174 9.81576 9.4022 9.70506 9.79628 9.72879C10.1904 9.75251 10.5647 9.90927 10.8581 10.1734L12.5038 11.6546C12.6694 11.3065 12.7681 10.8496 12.8206 10.2046C12.87 9.59715 12.8769 8.85965 12.8775 7.9359C12.8775 7.8202 12.9235 7.70924 13.0053 7.62742C13.0871 7.54561 13.1981 7.49965 13.3138 7.49965C13.4295 7.49965 13.5404 7.54561 13.6222 7.62742C13.704 7.70924 13.75 7.8202 13.75 7.9359Z" fill="white"/>
<path fill-rule="evenodd" clip-rule="evenodd" d="M10.9375 6.875C9.61187 6.875 8.94875 6.875 8.53688 6.46312C8.125 6.05125 8.125 5.38812 8.125 4.0625C8.125 2.73687 8.125 2.07375 8.53688 1.66187C8.94875 1.25 9.61187 1.25 10.9375 1.25C12.2631 1.25 12.9262 1.25 13.3381 1.66187C13.75 2.07375 13.75 2.73687 13.75 4.0625C13.75 5.38812 13.75 6.05125 13.3381 6.46312C12.9262 6.875 12.2631 6.875 10.9375 6.875ZM12.32 2.68C12.4352 2.79521 12.4999 2.95146 12.4999 3.11437C12.4999 3.27729 12.4352 3.43354 12.32 3.54875L12.2837 3.585C12.2667 3.60205 12.2459 3.61476 12.2229 3.62205C12.2 3.62934 12.1756 3.63099 12.1519 3.62687C11.9601 3.58756 11.7841 3.49281 11.6456 3.35438C11.5072 3.21594 11.4124 3.03991 11.3731 2.84813C11.369 2.8244 11.3707 2.80002 11.3779 2.77707C11.3852 2.75412 11.3979 2.73326 11.415 2.71625L11.4513 2.68C11.5665 2.56482 11.7227 2.50011 11.8856 2.50011C12.0485 2.50011 12.2048 2.56482 12.32 2.68ZM10.8438 5.025C10.7861 5.08724 10.7243 5.1455 10.6588 5.19938C10.6002 5.24526 10.5367 5.28446 10.4694 5.31625C10.4131 5.34312 10.3519 5.36375 10.2313 5.40375L9.59312 5.61625C9.56397 5.62593 9.53269 5.62731 9.50279 5.62023C9.47289 5.61316 9.44555 5.5979 9.42382 5.57618C9.4021 5.55445 9.38684 5.52711 9.37977 5.49721C9.37269 5.46731 9.37407 5.43603 9.38375 5.40688L9.59625 4.76938C9.63625 4.64812 9.65688 4.5875 9.68375 4.53063C9.71583 4.46271 9.75479 4.39958 9.80062 4.34125C9.83937 4.29125 9.88437 4.24625 9.975 4.15625L11.0994 3.03187C11.1263 3.005 11.1731 3.0175 11.1856 3.05375C11.247 3.2296 11.3473 3.38933 11.479 3.52103C11.6107 3.65273 11.7704 3.753 11.9463 3.81438C11.9825 3.82688 11.995 3.87375 11.9681 3.90063L10.8438 5.025Z" fill="white"/>
</svg>
