<svg width="19" height="16" viewBox="0 0 19 16" fill="none" xmlns="http://www.w3.org/2000/svg">
<path d="M9.25 4.25C9.875 1.78282 12.2356 0.523051 17.375 0.500004C17.4572 0.499695 17.5386 0.515649 17.6145 0.546949C17.6905 0.578248 17.7595 0.624273 17.8176 0.682372C17.8757 0.74047 17.9218 0.809493 17.9531 0.885461C17.9844 0.96143 18.0003 1.04284 18 1.125V12.375C18 12.5408 17.9342 12.6997 17.8169 12.8169C17.6997 12.9342 17.5408 13 17.375 13C12.375 13 10.4434 14.0082 9.25 15.5M9.25 4.25C8.625 1.78282 6.26446 0.523051 1.125 0.500004C1.04284 0.499695 0.96143 0.515649 0.885461 0.546949C0.809493 0.578248 0.74047 0.624273 0.682372 0.682372C0.624273 0.74047 0.578248 0.809493 0.546949 0.885461C0.515649 0.96143 0.499695 1.04284 0.500004 1.125V12.2996C0.500004 12.6856 0.739067 13 1.125 13C6.125 13 8.06368 14.0156 9.25 15.5M9.25 4.25V15.5" stroke="white" stroke-linecap="round" stroke-linejoin="round"/>
</svg>
