<svg width="20" height="20" viewBox="0 0 20 20" fill="none" xmlns="http://www.w3.org/2000/svg">
<path d="M2 18C1.45 18 0.979333 17.8043 0.588 17.413C0.196667 17.0217 0.000666667 16.5507 0 16V2C0 1.45 0.196 0.979333 0.588 0.588C0.98 0.196667 1.45067 0.000666667 2 0H16C16.55 0 17.021 0.196 17.413 0.588C17.805 0.98 18.0007 1.45067 18 2V8.7C17.6833 8.55 17.3583 8.421 17.025 8.313C16.6917 8.205 16.35 8.12567 16 8.075V2H2V16H8.05C8.1 16.3667 8.17933 16.7167 8.288 17.05C8.39667 17.3833 8.52567 17.7 8.675 18H2ZM2 15V16V2V8.075V8V15ZM4 14H8.075C8.125 13.65 8.20433 13.3083 8.313 12.975C8.42167 12.6417 8.54233 12.3167 8.675 12H4V14ZM4 10H10.1C10.6333 9.5 11.2293 9.08333 11.888 8.75C12.5467 8.41667 13.2507 8.19167 14 8.075V8H4V10ZM4 6H14V4H4V6ZM15 20C13.6167 20 12.4377 19.5123 11.463 18.537C10.4883 17.5617 10.0007 16.3827 10 15C9.99933 13.6173 10.487 12.4383 11.463 11.463C12.439 10.4877 13.618 10 15 10C16.382 10 17.5613 10.4877 18.538 11.463C19.5147 12.4383 20.002 13.6173 20 15C19.998 16.3827 19.5103 17.562 18.537 18.538C17.5637 19.514 16.3847 20.0013 15 20ZM14.5 18H15.5V15.5H18V14.5H15.5V12H14.5V14.5H12V15.5H14.5V18Z" fill="#FCFBFF"/>
</svg>
