<svg width="42" height="54" viewBox="0 0 42 54" fill="none" xmlns="http://www.w3.org/2000/svg">
<path d="M36.0938 8.59375H35.8016V12.0312H36.0938C36.5496 12.0312 36.9868 12.2123 37.3091 12.5347C37.6314 12.857 37.8125 13.2942 37.8125 13.75V48.125C37.8125 48.5808 37.6314 49.018 37.3091 49.3403C36.9868 49.6627 36.5496 49.8438 36.0938 49.8438H5.15625C4.70041 49.8438 4.26324 49.6627 3.94091 49.3403C3.61858 49.018 3.4375 48.5808 3.4375 48.125V13.75C3.4375 13.2942 3.61858 12.857 3.94091 12.5347C4.26324 12.2123 4.70041 12.0312 5.15625 12.0312H5.44844V8.59375H5.15625C3.78873 8.59375 2.47722 9.137 1.51023 10.104C0.543246 11.071 0 12.3825 0 13.75V48.125C0 49.4925 0.543246 50.804 1.51023 51.771C2.47722 52.738 3.78873 53.2812 5.15625 53.2812H36.0938C37.4613 53.2812 38.7728 52.738 39.7398 51.771C40.7068 50.804 41.25 49.4925 41.25 48.125V13.75C41.25 12.3825 40.7068 11.071 39.7398 10.104C38.7728 9.137 37.4613 8.59375 36.0938 8.59375Z" fill="#E26600"/>
<path d="M32.6562 5.15625H27.5V0H13.75V5.15625H8.59375V15.4688H32.6562V5.15625ZM29.2188 12.0312H12.0312V8.59375H17.1875V3.4375H24.0625V8.59375H29.2188V12.0312Z" fill="#E26600"/>
<path d="M10.3125 22.3438H30.9375V25.7812H10.3125V22.3438ZM10.3125 30.9375H30.9375V34.375H10.3125V30.9375ZM10.3125 39.5312H30.9375V42.9688H10.3125V39.5312Z" fill="#E26600"/>
</svg>
