<svg width="17" height="17" viewBox="0 0 17 17" fill="none" xmlns="http://www.w3.org/2000/svg">
<path d="M3.5 4.33301H2.66667C2.22464 4.33301 1.80072 4.5086 1.48816 4.82116C1.17559 5.13372 1 5.55765 1 5.99967V13.4997C1 13.9417 1.17559 14.3656 1.48816 14.6782C1.80072 14.9907 2.22464 15.1663 2.66667 15.1663H10.1667C10.6087 15.1663 11.0326 14.9907 11.3452 14.6782C11.6577 14.3656 11.8333 13.9417 11.8333 13.4997V12.6663" stroke="white" stroke-width="2" stroke-linecap="round" stroke-linejoin="round"/>
<path d="M11 2.66676L13.5 5.16676M14.6542 3.98759C14.9824 3.65938 15.1667 3.21424 15.1667 2.75009C15.1667 2.28594 14.9824 1.84079 14.6542 1.51259C14.326 1.18438 13.8808 1 13.4167 1C12.9525 1 12.5074 1.18438 12.1792 1.51259L5.16666 8.50009V11.0001H7.66666L14.6542 3.98759Z" stroke="white" stroke-width="2" stroke-linecap="round" stroke-linejoin="round"/>
</svg>
