<svg width="92" height="88" viewBox="0 0 92 88" fill="none" xmlns="http://www.w3.org/2000/svg">
<circle cx="51.6147" cy="44" r="32" fill="#171717"/>
<circle cx="51.6147" cy="44" r="35" stroke="#D4B579" stroke-opacity="0.58" stroke-width="6"/>
<path d="M42.8887 35.011C42.8887 33.307 42.8887 32.455 43.2325 31.7059C43.5775 30.9568 44.2237 30.4035 45.5174 29.2942L46.7722 28.2189C49.1124 26.215 50.2793 25.2112 51.6721 25.2112C53.0649 25.2112 54.2331 26.2138 56.572 28.2176L57.8268 29.293C59.1192 30.4022 59.7667 30.9556 60.1105 31.7047C60.4556 32.4538 60.4556 33.3058 60.4556 35.0098V40.3313C60.4556 42.6978 60.4556 43.8798 59.7203 44.6151C58.985 45.3504 57.803 45.3504 55.4365 45.3504H47.9078C45.5413 45.3504 44.3593 45.3504 43.624 44.6151C42.8887 43.8798 42.8887 42.6978 42.8887 40.3313V35.011Z" stroke="#FFCD7B" stroke-width="2"/>
<path d="M54.8091 45.3505V39.0766C54.8091 38.7438 54.6769 38.4246 54.4416 38.1893C54.2062 37.954 53.8871 37.8218 53.5543 37.8218H49.79C49.4572 37.8218 49.138 37.954 48.9027 38.1893C48.6674 38.4246 48.5352 38.7438 48.5352 39.0766V45.3505" stroke="#FFCD7B" stroke-width="2" stroke-linecap="round" stroke-linejoin="round"/>
<path d="M42.7547 58.1447V65.1147H41.8447V61.9547H38.2947V65.1147H37.3847V58.1447H38.2947V61.2047H41.8447V58.1447H42.7547ZM46.6986 65.2047C46.1852 65.2047 45.7186 65.0881 45.2986 64.8547C44.8852 64.6214 44.5586 64.2914 44.3186 63.8647C44.0852 63.4314 43.9686 62.9314 43.9686 62.3647C43.9686 61.8047 44.0886 61.3114 44.3286 60.8847C44.5752 60.4514 44.9086 60.1214 45.3286 59.8947C45.7486 59.6614 46.2186 59.5447 46.7386 59.5447C47.2586 59.5447 47.7286 59.6614 48.1486 59.8947C48.5686 60.1214 48.8986 60.4481 49.1386 60.8747C49.3852 61.3014 49.5086 61.7981 49.5086 62.3647C49.5086 62.9314 49.3819 63.4314 49.1286 63.8647C48.8819 64.2914 48.5452 64.6214 48.1186 64.8547C47.6919 65.0881 47.2186 65.2047 46.6986 65.2047ZM46.6986 64.4047C47.0252 64.4047 47.3319 64.3281 47.6186 64.1747C47.9052 64.0214 48.1352 63.7914 48.3086 63.4847C48.4886 63.1781 48.5786 62.8047 48.5786 62.3647C48.5786 61.9247 48.4919 61.5514 48.3186 61.2447C48.1452 60.9381 47.9186 60.7114 47.6386 60.5647C47.3586 60.4114 47.0552 60.3347 46.7286 60.3347C46.3952 60.3347 46.0886 60.4114 45.8086 60.5647C45.5352 60.7114 45.3152 60.9381 45.1486 61.2447C44.9819 61.5514 44.8986 61.9247 44.8986 62.3647C44.8986 62.8114 44.9786 63.1881 45.1386 63.4947C45.3052 63.8014 45.5252 64.0314 45.7986 64.1847C46.0719 64.3314 46.3719 64.4047 46.6986 64.4047ZM57.2951 59.5347C57.7217 59.5347 58.1017 59.6247 58.4351 59.8047C58.7684 59.9781 59.0317 60.2414 59.2251 60.5947C59.4184 60.9481 59.5151 61.3781 59.5151 61.8847V65.1147H58.6151V62.0147C58.6151 61.4681 58.4784 61.0514 58.2051 60.7647C57.9384 60.4714 57.5751 60.3247 57.1151 60.3247C56.6417 60.3247 56.2651 60.4781 55.9851 60.7847C55.7051 61.0847 55.5651 61.5214 55.5651 62.0947V65.1147H54.6651V62.0147C54.6651 61.4681 54.5284 61.0514 54.2551 60.7647C53.9884 60.4714 53.6251 60.3247 53.1651 60.3247C52.6917 60.3247 52.3151 60.4781 52.0351 60.7847C51.7551 61.0847 51.6151 61.5214 51.6151 62.0947V65.1147H50.7051V59.6347H51.6151V60.4247C51.7951 60.1381 52.0351 59.9181 52.3351 59.7647C52.6417 59.6114 52.9784 59.5347 53.3451 59.5347C53.8051 59.5347 54.2117 59.6381 54.5651 59.8447C54.9184 60.0514 55.1817 60.3547 55.3551 60.7547C55.5084 60.3681 55.7617 60.0681 56.1151 59.8547C56.4684 59.6414 56.8617 59.5347 57.2951 59.5347ZM66.0078 62.1647C66.0078 62.3381 65.9978 62.5214 65.9778 62.7147H61.5978C61.6311 63.2547 61.8145 63.6781 62.1478 63.9847C62.4878 64.2847 62.8978 64.4347 63.3778 64.4347C63.7711 64.4347 64.0978 64.3447 64.3578 64.1647C64.6245 63.9781 64.8111 63.7314 64.9178 63.4247H65.8978C65.7511 63.9514 65.4578 64.3814 65.0178 64.7147C64.5778 65.0414 64.0311 65.2047 63.3778 65.2047C62.8578 65.2047 62.3911 65.0881 61.9778 64.8547C61.5711 64.6214 61.2511 64.2914 61.0178 63.8647C60.7845 63.4314 60.6678 62.9314 60.6678 62.3647C60.6678 61.7981 60.7811 61.3014 61.0078 60.8747C61.2345 60.4481 61.5511 60.1214 61.9578 59.8947C62.3711 59.6614 62.8445 59.5447 63.3778 59.5447C63.8978 59.5447 64.3578 59.6581 64.7578 59.8847C65.1578 60.1114 65.4645 60.4247 65.6778 60.8247C65.8978 61.2181 66.0078 61.6647 66.0078 62.1647ZM65.0678 61.9747C65.0678 61.6281 64.9911 61.3314 64.8378 61.0847C64.6845 60.8314 64.4745 60.6414 64.2078 60.5147C63.9478 60.3814 63.6578 60.3147 63.3378 60.3147C62.8778 60.3147 62.4845 60.4614 62.1578 60.7547C61.8378 61.0481 61.6545 61.4547 61.6078 61.9747H65.0678Z" fill="#FFCD7B"/>
</svg>
