<svg width="20" height="20" viewBox="0 0 20 20" fill="none" xmlns="http://www.w3.org/2000/svg">
<path d="M12.9167 6.24992L14.8334 8.16658C14.9892 8.31927 15.1986 8.4048 15.4167 8.4048C15.6349 8.4048 15.8443 8.31927 16.0001 8.16658L17.7501 6.41658C17.9028 6.26081 17.9883 6.05138 17.9883 5.83325C17.9883 5.61512 17.9028 5.40569 17.7501 5.24992L15.8334 3.33325" stroke="white" stroke-width="2" stroke-linecap="round" stroke-linejoin="round"/>
<path d="M17.5 1.66675L9.5 9.66675" stroke="white" stroke-width="2" stroke-linecap="round" stroke-linejoin="round"/>
<path d="M6.25008 17.4999C8.78139 17.4999 10.8334 15.4479 10.8334 12.9166C10.8334 10.3853 8.78139 8.33325 6.25008 8.33325C3.71878 8.33325 1.66675 10.3853 1.66675 12.9166C1.66675 15.4479 3.71878 17.4999 6.25008 17.4999Z" stroke="white" stroke-width="2" stroke-linecap="round" stroke-linejoin="round"/>
</svg>
