<svg width="40" height="41" viewBox="0 0 40 41" fill="none" xmlns="http://www.w3.org/2000/svg">
<rect width="40" height="41" rx="10" fill="#759700"/>
<rect width="40" height="41" rx="10" fill="url(#paint0_radial_226_1884)" fill-opacity="0.7"/>
<rect width="40" height="41" rx="10" fill="url(#paint1_radial_226_1884)"/>
<path d="M16.6 15.7283L18.0767 10.5633C18.63 8.62995 21.37 8.62995 21.9233 10.5633L23.3983 15.7283C23.4917 16.055 23.6668 16.3526 23.9071 16.5928C24.1474 16.8331 24.4449 17.0082 24.7717 17.1016L29.9367 18.5766C31.87 19.1299 31.87 21.8699 29.9367 22.4233L24.7717 23.8983C24.4449 23.9917 24.1474 24.1668 23.9071 24.4071C23.6668 24.6473 23.4917 24.9449 23.3983 25.2716L21.9233 30.4366C21.37 32.3699 18.63 32.3699 18.0767 30.4366L16.6017 25.2716C16.5083 24.9449 16.3332 24.6473 16.0929 24.4071C15.8526 24.1668 15.5551 23.9917 15.2283 23.8983L10.0633 22.4233C8.13001 21.8699 8.13001 19.1299 10.0633 18.5766L15.2283 17.1016C15.5551 17.0082 15.8526 16.8331 16.0929 16.5928C16.3332 16.3526 16.5083 16.055 16.6017 15.7283" fill="black" fill-opacity="0.16"/>
<path d="M16.6 15.7282L18.0766 10.5632C18.63 8.62986 21.37 8.62986 21.9233 10.5632L23.3983 15.7282C23.4917 16.0549 23.6668 16.3525 23.9071 16.5928C24.1474 16.833 24.4449 17.0081 24.7716 17.1015L29.9366 18.5765C31.87 19.1299 31.87 21.8699 29.9366 22.4232L24.7716 23.8982C24.4449 23.9916 24.1474 24.1667 23.9071 24.407C23.6668 24.6472 23.4917 24.9448 23.3983 25.2715L21.9233 30.4365C21.37 32.3699 18.63 32.3699 18.0766 30.4365L16.6016 25.2715C16.5083 24.9448 16.3332 24.6472 16.0929 24.407C15.8526 24.1667 15.555 23.9916 15.2283 23.8982L10.0633 22.4232C8.12998 21.8699 8.12998 19.1299 10.0633 18.5765L15.2283 17.1015C15.555 17.0081 15.8526 16.833 16.0929 16.5928C16.3332 16.3525 16.5083 16.0549 16.6016 15.7282M7.38331 7.63819L8.00998 5.12652C8.09331 4.78986 8.57331 4.78986 8.65664 5.12652L9.28498 7.63819C9.29943 7.69684 9.32955 7.75046 9.37212 7.79332C9.41468 7.83618 9.4681 7.86667 9.52665 7.88152L12.04 8.50986C12.3766 8.59319 12.3766 9.07152 12.04 9.15652L9.52665 9.78486C9.4683 9.79958 9.41503 9.82981 9.37248 9.87236C9.32993 9.91491 9.2997 9.96818 9.28498 10.0265L8.65664 12.5399C8.57331 12.8765 8.09331 12.8765 8.00998 12.5399L7.38165 10.0265C7.36693 9.96818 7.33669 9.91491 7.29414 9.87236C7.25159 9.82981 7.19832 9.79958 7.13998 9.78486L4.62665 9.15652C4.28998 9.07319 4.28998 8.59319 4.62665 8.50986L7.13998 7.88152C7.19853 7.86667 7.25194 7.83618 7.29451 7.79332C7.33707 7.75046 7.36886 7.69684 7.38331 7.63819ZM30.7166 30.9732L31.3433 28.4599C31.4266 28.1232 31.905 28.1232 31.99 28.4599L32.6183 30.9732C32.633 31.0315 32.6633 31.0848 32.7058 31.1274C32.7484 31.1699 32.8016 31.2001 32.86 31.2149L35.3733 31.8432C35.71 31.9265 35.71 32.4049 35.3733 32.4899L32.86 33.1182C32.8016 33.1329 32.7484 33.1631 32.7058 33.2057C32.6633 33.2482 32.633 33.3015 32.6183 33.3599L31.99 35.8732C31.9066 36.2099 31.4283 36.2099 31.3433 35.8732L30.715 33.3599C30.7003 33.3015 30.67 33.2482 30.6275 33.2057C30.5849 33.1631 30.5317 33.1329 30.4733 33.1182L27.96 32.4899C27.6233 32.4065 27.6233 31.9265 27.96 31.8432L30.4733 31.2149C30.5317 31.2001 30.5849 31.1699 30.6275 31.1274C30.67 31.0848 30.7019 31.0315 30.7166 30.9732Z" stroke="#FFFEFE" stroke-width="1.5" stroke-miterlimit="10" stroke-linecap="round" stroke-linejoin="round"/>
<defs>
<radialGradient id="paint0_radial_226_1884" cx="0" cy="0" r="1" gradientTransform="matrix(21.1111 26.7639 -26.1111 21.6389 10.5556 8.54167)" gradientUnits="userSpaceOnUse">
<stop stop-color="white" stop-opacity="0.59"/>
<stop offset="0.697917" stop-color="white" stop-opacity="0"/>
<stop offset="1" stop-color="white" stop-opacity="0"/>
</radialGradient>
<radialGradient id="paint1_radial_226_1884" cx="0" cy="0" r="1" gradientTransform="matrix(-2.19178 -35.0208 -36.8345 22.4077 34.5205 35.875)" gradientUnits="userSpaceOnUse">
<stop stop-opacity="0.23"/>
<stop offset="0.861815" stop-opacity="0"/>
</radialGradient>
</defs>
</svg>
