<svg width="22" height="21" viewBox="0 0 22 21" fill="none" xmlns="http://www.w3.org/2000/svg">
<path d="M8.57412 7.34898L9.51913 4.20883C9.87325 3.03342 11.6268 3.03342 11.9809 4.20883L12.9248 7.34898C12.9846 7.54762 13.0966 7.72852 13.2504 7.87461C13.4042 8.02069 13.5946 8.12715 13.8037 8.18392L17.1091 9.08067C18.3464 9.41708 18.3464 11.0829 17.1091 11.4193L13.8037 12.3161C13.5946 12.3729 13.4042 12.4793 13.2504 12.6254C13.0966 12.7715 12.9846 12.9524 12.9248 13.151L11.9809 16.2912C11.6268 17.4666 9.87325 17.4666 9.51913 16.2912L8.57518 13.151C8.51542 12.9524 8.40336 12.7715 8.24958 12.6254C8.09581 12.4793 7.90539 12.3729 7.6963 12.3161L4.39087 11.4193C3.15361 11.0829 3.15361 9.41708 4.39087 9.08067L7.6963 8.18392C7.90539 8.12715 8.09581 8.02069 8.24958 7.87461C8.40336 7.72852 8.51542 7.54762 8.57518 7.34898M2.67576 2.43052L3.07681 0.903512C3.13014 0.698829 3.43732 0.698829 3.49065 0.903512L3.89277 2.43052C3.90202 2.46618 3.92129 2.49878 3.94853 2.52484C3.97577 2.55089 4.00995 2.56943 4.04742 2.57846L5.65587 2.96047C5.87133 3.01113 5.87133 3.30194 5.65587 3.35362L4.04742 3.73563C4.01009 3.74458 3.97599 3.76296 3.94876 3.78883C3.92154 3.81469 3.90219 3.84708 3.89277 3.88255L3.49065 5.41058C3.43732 5.61526 3.13014 5.61526 3.07681 5.41058L2.6747 3.88255C2.66528 3.84708 2.64593 3.81469 2.6187 3.78883C2.59147 3.76296 2.55738 3.74458 2.52004 3.73563L0.911591 3.35362C0.696136 3.30296 0.696136 3.01113 0.911591 2.96047L2.52004 2.57846C2.55751 2.56943 2.59169 2.55089 2.61893 2.52484C2.64617 2.49878 2.66651 2.46618 2.67576 2.43052ZM17.6083 16.6174L18.0093 15.0894C18.0627 14.8847 18.3688 14.8847 18.4232 15.0894L18.8253 16.6174C18.8347 16.6529 18.8541 16.6853 18.8813 16.7112C18.9085 16.737 18.9426 16.7554 18.98 16.7644L20.5884 17.1464C20.8039 17.197 20.8039 17.4879 20.5884 17.5395L18.98 17.9215C18.9426 17.9305 18.9085 17.9489 18.8813 17.9747C18.8541 18.0006 18.8347 18.033 18.8253 18.0685L18.4232 19.5965C18.3699 19.8012 18.0637 19.8012 18.0093 19.5965L17.6072 18.0685C17.5978 18.033 17.5785 18.0006 17.5512 17.9747C17.524 17.9489 17.4899 17.9305 17.4526 17.9215L15.8441 17.5395C15.6287 17.4889 15.6287 17.197 15.8441 17.1464L17.4526 16.7644C17.4899 16.7554 17.524 16.737 17.5512 16.7112C17.5785 16.6853 17.5989 16.6529 17.6083 16.6174Z" stroke="black" stroke-width="1.5" stroke-miterlimit="10" stroke-linecap="round" stroke-linejoin="round"/>
</svg>
