<svg width="34" height="34" viewBox="0 0 34 34" fill="none" xmlns="http://www.w3.org/2000/svg">
<rect width="34" height="34" rx="17" fill="#D0AD6B"/>
<path d="M9 23C8.71667 23 8.47934 22.904 8.288 22.712C8.09667 22.52 8.00067 22.2827 8 22C7.99934 21.7173 8.09534 21.48 8.288 21.288C8.48067 21.096 8.718 21 9 21H25C25.2833 21 25.521 21.096 25.713 21.288C25.905 21.48 26.0007 21.7173 26 22C25.9993 22.2827 25.9033 22.5203 25.712 22.713C25.5207 22.9057 25.2833 23.0013 25 23H9ZM9 18C8.71667 18 8.47934 17.904 8.288 17.712C8.09667 17.52 8.00067 17.2827 8 17C7.99934 16.7173 8.09534 16.48 8.288 16.288C8.48067 16.096 8.718 16 9 16H25C25.2833 16 25.521 16.096 25.713 16.288C25.905 16.48 26.0007 16.7173 26 17C25.9993 17.2827 25.9033 17.5203 25.712 17.713C25.5207 17.9057 25.2833 18.0013 25 18H9ZM9 13C8.71667 13 8.47934 12.904 8.288 12.712C8.09667 12.52 8.00067 12.2827 8 12C7.99934 11.7173 8.09534 11.48 8.288 11.288C8.48067 11.096 8.718 11 9 11H25C25.2833 11 25.521 11.096 25.713 11.288C25.905 11.48 26.0007 11.7173 26 12C25.9993 12.2827 25.9033 12.5203 25.712 12.713C25.5207 12.9057 25.2833 13.0013 25 13H9Z" fill="#FFF6F6"/>
</svg>
