<svg width="65" height="89" viewBox="0 0 65 89" fill="none" xmlns="http://www.w3.org/2000/svg">
<path d="M32.5 0C36.1941 0 39.7369 1.48054 42.349 4.11592C44.9611 6.7513 46.4286 10.3256 46.4286 14.0526V42.1579C46.4286 45.8849 44.9611 49.4592 42.349 52.0946C39.7369 54.73 36.1941 56.2105 32.5 56.2105C28.8059 56.2105 25.2631 54.73 22.651 52.0946C20.0389 49.4592 18.5714 45.8849 18.5714 42.1579V14.0526C18.5714 10.3256 20.0389 6.7513 22.651 4.11592C25.2631 1.48054 28.8059 0 32.5 0ZM65 42.1579C65 58.6932 52.8821 72.3242 37.1429 74.6195V89H27.8571V74.6195C12.1179 72.3242 0 58.6932 0 42.1579H9.28571C9.28571 48.3695 11.7315 54.3268 16.085 58.7191C20.4385 63.1114 26.3432 65.5789 32.5 65.5789C38.6568 65.5789 44.5615 63.1114 48.915 58.7191C53.2685 54.3268 55.7143 48.3695 55.7143 42.1579H65Z" fill="#D0AD6B"/>
</svg>
