<svg width="12" height="20" viewBox="0 0 12 20" fill="none" xmlns="http://www.w3.org/2000/svg">
<path d="M3.59939 2.4C3.59939 1.07625 4.67564 0 5.99939 0C7.32314 0 8.39939 1.07625 8.39939 2.4C8.39939 3.72375 7.32314 4.8 5.99939 4.8C4.67564 4.8 3.59939 3.72375 3.59939 2.4ZM5.39939 14.4V18C5.39939 18.6637 4.86314 19.2 4.19939 19.2C3.53564 19.2 2.99939 18.6637 2.99939 18V10.7925L2.21564 12.0375C1.86314 12.6 1.12064 12.765 0.561893 12.4125C0.00314287 12.06 -0.169357 11.3212 0.183143 10.7625L1.67939 8.38875C2.61314 6.9 4.24439 6 5.99939 6C7.75439 6 9.38564 6.9 10.3194 8.385L11.8156 10.7625C12.1681 11.325 11.9994 12.0637 11.4406 12.4162C10.8819 12.7687 10.1394 12.6 9.78689 12.0412L8.99939 10.7925V18C8.99939 18.6637 8.46314 19.2 7.79939 19.2C7.13564 19.2 6.59939 18.6637 6.59939 18V14.4H5.39939Z" fill="white"/>
</svg>
