<svg width="65" height="65" viewBox="0 0 65 65" fill="none" xmlns="http://www.w3.org/2000/svg">
<path d="M31.2936 26.8815C33.4563 26.6418 35.1675 28.0489 35.6079 30.1515C36.0142 32.0917 34.0977 34.0185 32.3204 34.3839C27.4744 35.121 26.0526 27.4083 31.2936 26.8815ZM31.4914 28.1994C27.9595 28.5225 29.1683 33.6398 32.1024 33.0071C35.0356 32.5597 34.9669 28.0064 31.4914 28.1994Z" fill="#D0AD6B"/>
<path d="M44.9281 13.2253C50.4778 13.283 50.503 21.9603 44.7966 21.8615C38.8234 21.4815 39.4441 13.3487 44.9281 13.2253ZM44.858 14.6902C40.5394 15.1479 41.4153 20.4894 44.8568 20.4837C49.0261 19.9842 48.3615 14.5364 44.858 14.6902Z" fill="#D0AD6B"/>
<path d="M19.1892 12.3859C23.2734 12.1474 25.4314 17.3341 22.5527 20.2969C21.7203 21.1537 20.5978 21.5546 19.4156 21.5758C15.588 21.6035 13.2618 16.9209 15.8847 13.9574C16.763 12.9652 17.8757 12.4628 19.1892 12.3859ZM19.1382 13.8215C14.9811 14.2577 15.3979 20.3545 19.588 20.1811C23.7385 19.8262 23.1693 13.5189 19.1382 13.8215Z" fill="#D0AD6B"/>
<path d="M10.3719 33.9755C10.6938 32.6354 11.0687 31.314 11.4185 29.9818C12.0374 27.6244 12.44 24.6053 14.8702 23.4071C16.1754 22.7636 20.9781 22.7146 22.4028 23.2093C24.9828 24.1053 25.2051 26.2156 26.073 28.4183C26.4187 29.2956 26.8819 30.1341 27.2933 30.9822C28.5755 33.4433 29.899 35.3474 33.0383 34.4738C34.7774 33.9898 35.7488 31.875 36.5636 30.4131C36.9238 29.7339 37.4842 28.8406 37.6026 28.0848C37.6738 27.6302 37.5651 27.1871 37.7338 26.7425C38.19 25.5399 40.2597 23.66 41.6407 23.2336C42.7942 22.8775 46.4996 22.8125 47.7114 23.0331C49.5306 23.3643 51.299 25.0258 51.8107 26.763C52.0663 27.631 52.2056 28.5485 52.4009 29.4326L52.7635 31.0666C52.8244 31.3411 52.9056 31.624 52.945 31.9018C53.1444 32.7371 53.3361 33.5863 53.494 34.4305C53.6668 35.0532 54.1994 37.1955 54.2286 37.698C54.3337 39.5037 51.8566 40.1541 50.9275 38.4799C50.3003 37.3493 49.8534 34.7565 49.3653 33.3411L49.3325 41.311C49.3329 44.2302 49.3677 47.1533 49.3317 50.0719C49.32 51.0233 49.2898 51.9369 48.5592 52.6392C47.5721 53.588 45.8562 53.6424 44.8815 52.6309C43.7864 53.5543 42.031 53.6992 40.9864 52.625C40.0335 51.645 40.2281 50.3818 40.2276 49.1245L40.2367 32.8793C38.6054 35.0007 37.1903 37.3613 35.554 39.5227L35.5528 47.1247C35.5531 48.3839 35.5819 49.648 35.5558 50.9065C35.5112 53.0578 33.2839 54.2137 31.8012 52.661L31.7664 52.6981C30.5801 53.9354 28.4382 53.3333 28.111 51.61C28.0073 51.064 28.0396 50.4803 28.0393 49.9262L28.0387 47.872C28.0382 45.0606 28.0757 42.2446 28.046 39.4338C26.6574 37.7984 25.5886 35.6504 24.244 34.1688C24.2292 34.5268 24.2711 34.8853 24.2691 35.2435L24.2338 49.1715C24.2338 49.7375 24.2673 50.3302 24.1954 50.8914C23.8904 53.2752 20.6765 54.2708 19.2129 52.3273C18.1032 53.461 16.2949 53.8266 15.0587 52.6535C14.0818 51.7266 14.1358 50.8365 14.1372 49.615L14.1376 39.6951C14.1375 38.5831 14.1818 37.4593 14.1488 36.3495C13.7498 37.3073 13.6138 38.7169 12.6605 39.3034C11.7603 39.8573 10.307 39.576 9.76787 38.6376C9.08671 37.4521 10.0126 35.3008 10.3719 33.9755ZM11.5795 34.5556C11.5797 35.261 10.6845 36.8518 10.8354 37.7422C10.9035 38.1446 11.3353 38.416 11.7331 38.3289C12.3735 38.1889 13.2988 35.1023 13.565 34.3578C13.8103 33.672 13.8321 33.0689 14.624 32.8777C15.9299 33.2531 15.4164 35.575 15.4153 36.7755L15.4143 49.1818C15.4087 49.9409 15.2421 50.8618 15.7421 51.511C16.2682 52.1939 17.3116 52.2761 17.9681 51.7305C18.7838 51.0526 18.4763 49.9686 18.4876 49.0379L18.5372 43.3687C18.5365 42.7084 18.3257 40.692 18.7605 40.3777C19.1499 40.0963 19.5098 40.2636 19.766 40.6256L19.789 40.6588C19.8446 41.4854 19.7974 42.3476 19.7974 43.1773L19.7939 49.6142C19.7914 50.6112 19.8572 51.8759 21.1331 52.0409C23.1012 52.2953 22.9849 50.2025 22.9852 48.9545L22.9821 34.537C22.9791 33.7331 22.7715 32.0181 24.1754 32.2882C25.0099 32.4488 27.6833 36.9572 28.6601 38.2149C28.8179 38.4182 29.2136 38.6157 29.2891 38.8561C29.3946 39.1921 29.3298 40.751 29.3299 41.2129L29.3296 49.9982C29.3317 50.6885 29.1494 51.9247 30.1039 52.0621C31.3905 52.2475 31.1541 50.6502 31.1542 49.926L31.1531 46.768C31.1517 46.2042 31.1085 45.6009 31.1642 45.0411C31.2239 44.4411 32.1843 44.2818 32.3954 44.8649C32.5434 45.2737 32.4658 45.8858 32.4655 46.3242L32.4627 49.3343C32.4621 49.854 32.3216 51.2939 32.6649 51.7186C32.982 52.1107 33.5771 52.1497 33.9425 51.8079C34.3911 51.3885 34.2668 50.7521 34.266 50.2066L34.2652 42.1607C34.2655 41.1362 34.2342 40.1007 34.2719 39.0774C34.291 38.5583 34.9627 38.1808 35.2433 37.7772C36.3389 36.2007 37.3906 34.5975 38.4993 33.0167C38.8913 32.4579 39.6053 31.36 40.0923 30.9285C40.6113 30.4687 41.3726 30.7836 41.5347 31.4376C41.6063 31.726 41.5155 34.0464 41.5155 34.4921L41.5166 49.1996C41.5164 49.7475 41.4693 50.3238 41.5257 50.8675C41.6516 52.0816 43.0417 52.4732 43.878 51.6751C44.2918 51.2802 44.1825 50.5919 44.1823 50.0748L44.1809 43.7449C44.1808 43.3233 44.0292 41.6125 44.3216 41.3475C44.645 41.0547 45.2847 41.0724 45.4397 41.5458C45.5233 41.8012 45.4394 42.7235 45.4384 43.0569L45.4402 48.732C45.4407 49.2972 45.3623 50.4516 45.4368 50.9542C45.6562 52.4336 47.8737 52.4226 48.052 50.9126C48.1151 50.3785 48.0583 49.6493 48.0578 49.0944L48.0563 45.2184C48.0566 41.2259 48.1093 37.2264 48.0487 33.2347C48.2598 32.435 47.7856 31.4349 48.6468 30.8993C48.792 30.809 49.6325 30.6522 49.6578 30.9268C49.6857 31.2309 49.9385 31.249 50.0398 31.4993C50.167 31.813 50.9678 34.4059 51.0446 34.4596C51.1423 34.7152 51.1992 35.0071 51.2736 35.272L51.7558 36.9799C51.864 37.3578 51.9584 37.7723 52.1665 38.1089L52.4994 38.2503C52.8354 38.0801 52.9342 38.037 52.8815 37.6248C52.7374 36.4993 52.2524 35.1206 52.0428 33.9212C51.8913 33.2825 51.7519 32.6349 51.6292 31.99C50.7529 29.2154 50.9706 25.178 47.3745 24.4476C46.4722 24.2643 43.4163 24.2695 42.5139 24.4644C41.0982 24.7701 40.5154 25.3923 39.6688 26.5012C38.7491 27.7059 39.1484 27.3302 38.8517 28.6729C38.6505 29.5833 37.9644 30.8008 37.4562 31.5841C36.9334 32.799 35.2092 34.9549 34.0918 35.4953C32.8848 36.0791 31.1857 36.1535 29.9209 35.71C28.2787 35.1341 26.8582 33.0527 26.1013 31.4901C24.3794 29.1932 24.5028 24.9053 21.3511 24.3673C20.3621 24.1985 17.1825 24.1734 16.2317 24.3901C14.1599 24.8621 13.7474 26.6222 13.2504 28.3509C12.6591 30.4084 12.2385 32.5215 11.5795 34.5556Z" fill="#D0AD6B"/>
<path d="M32.378 0C41.3194 0 49.4139 3.62463 55.2727 9.48335C61.1314 15.3421 64.756 23.4366 64.756 32.378C64.756 41.3194 61.1331 49.4139 55.2727 55.2727C49.4139 61.1314 41.3194 64.756 32.378 64.756C23.4366 64.756 15.3438 61.1314 9.48335 55.2727C3.62463 49.4139 0 41.3194 0 32.378C0 23.4366 3.62463 15.3421 9.48335 9.48335C15.3438 3.62463 23.4383 0 32.378 0ZM54.2502 10.5058C48.6522 4.90782 40.9207 1.44679 32.378 1.44679C23.8353 1.44679 16.1038 4.90953 10.5075 10.5058C4.90953 16.1038 1.44849 23.8353 1.44849 32.378C1.44849 40.9207 4.91123 48.6522 10.5075 54.2502C16.1055 59.8482 23.837 63.3092 32.3797 63.3092C40.9224 63.3092 48.6539 59.8465 54.2519 54.2502C59.8499 48.6522 63.3109 40.9207 63.3109 32.378C63.3109 23.8353 59.8482 16.1038 54.2502 10.5058Z" fill="#D4B579"/>
</svg>
