<svg width="17" height="17" viewBox="0 0 17 17" fill="none" xmlns="http://www.w3.org/2000/svg">
<path d="M15.9428 0L10.6165 2.00007L12.528 3.20517C9.11325 7.50524 4.17359 10.1539 0 11.1621L1.18234 13.3157C5.87194 11.7872 10.8369 9.03013 14.0348 4.15914L15.4911 5.07697L15.9428 0ZM16.221 4.21695L16.0476 6.19715L14.1938 5.02638C14.1288 5.12394 14.0601 5.21789 13.9915 5.31546V16.8642H16.81V4.21695H16.221ZM10.7791 8.84223C10.3202 9.23972 9.84679 9.61552 9.36619 9.96965V16.8642H12.1847V8.84223H10.7791ZM6.30917 11.8776C5.78883 12.1522 5.26848 12.4051 4.74091 12.6436V16.8642H7.55944V11.8776H6.30917ZM0.115632 13.4675V16.8642H2.93416V13.4675H2.72891C2.19339 13.6663 1.65823 13.8505 1.12633 14.0204L0.871215 14.0999L0.524319 13.4675H0.115632Z" fill="white"/>
</svg>
