<svg width="48" height="52" viewBox="0 0 48 52" fill="none" xmlns="http://www.w3.org/2000/svg">
<path d="M10.9167 40.7083H36.125M10.9167 32.6875H36.125M29.6717 1.84167C30.6995 2.1625 33.9995 3.47104 38.7661 8.11969C43.2578 12.5002 44.7096 15.6111 45.1358 16.7936C45.2309 19.3615 45.2917 22.3521 45.2917 25.8125C45.2917 35.0536 44.862 40.9421 44.4701 44.391C44.1836 46.9142 42.2896 48.8002 39.7688 49.0947C36.5432 49.4717 31.2747 49.875 23.5208 49.875C15.767 49.875 10.4984 49.4717 7.27292 49.0958C4.75208 48.8002 2.85802 46.9142 2.57156 44.391C2.17969 40.9421 1.75 35.0525 1.75 25.8125C1.75 16.5725 2.17969 10.6829 2.57156 7.23396C2.85802 4.71083 4.75208 2.82479 7.27292 2.52917C10.4984 2.15448 15.767 1.75 23.5208 1.75C25.7781 1.75 27.8246 1.78437 29.6717 1.84167Z" stroke="#00BC3C" stroke-width="3.5" stroke-linecap="round" stroke-linejoin="round"/>
<path d="M10.9167 24.5155C13.8637 20.0124 16.3216 18.0347 17.6725 17.2051C18.3107 16.8121 19.0819 17.0688 19.4142 17.7414C20.1738 19.2825 20.8923 21.4 21.4045 23.081C21.707 24.0664 23.1461 24.2784 23.7798 23.4648C26.3304 20.1923 29.8229 17.2189 29.8229 17.2189M34.483 19.3043C34.9872 16.6414 35.0067 14.305 34.9643 13.0675C34.957 12.8071 34.8505 12.5594 34.6664 12.3751C34.4823 12.1908 34.2346 12.0839 33.9743 12.0764C31.8837 12.0131 29.7924 12.1744 27.7363 12.5576C26.8724 12.7215 26.5859 13.7745 27.2093 14.3967L32.6451 19.8337C33.2673 20.4559 34.3192 20.1682 34.483 19.3043Z" stroke="#00BC3C" stroke-width="3.5" stroke-linecap="round" stroke-linejoin="round"/>
</svg>
