<svg width="20" height="18" viewBox="0 0 20 18" fill="none" xmlns="http://www.w3.org/2000/svg">
<path d="M2.53328 0.700195H1.61662C1.3735 0.700195 1.14034 0.796772 0.968437 0.968681C0.796528 1.14059 0.699951 1.37375 0.699951 1.61686V14.4502L2.07495 17.2002L3.44995 14.4502V1.61686C3.44995 1.37375 3.35337 1.14059 3.18147 0.968681C3.00956 0.796772 2.7764 0.700195 2.53328 0.700195Z" stroke="#FEFEFF" stroke-width="1.4" stroke-linejoin="round"/>
<path d="M18.1166 8.95111V5.28445C18.1166 3.12295 18.1166 2.04311 17.4456 1.3712C16.7737 0.700195 15.6939 0.700195 13.5333 0.700195H10.7833C8.6227 0.700195 7.54195 0.700195 6.87095 1.3712C6.19995 2.04311 6.19995 3.12295 6.19995 5.28445V12.6178C6.19995 14.7793 6.19995 15.86 6.87095 16.5319C7.43928 17.1003 8.30187 17.1864 9.86662 17.2002M9.86662 4.36686H14.45M9.86662 8.03353H14.45" stroke="#FEFEFF" stroke-width="1.4" stroke-linecap="round" stroke-linejoin="round"/>
<path d="M11.7 15.3672C11.7 15.3672 13.075 15.8255 13.9916 17.2005C13.9916 17.2005 15.3666 13.5339 19.0333 11.7005M0.699951 4.36719H3.44995" stroke="#FEFEFF" stroke-width="1.4" stroke-linecap="round" stroke-linejoin="round"/>
</svg>
