<svg width="55" height="55" viewBox="0 0 55 55" fill="none" xmlns="http://www.w3.org/2000/svg">
<path d="M11.4583 48.125C10.1979 48.125 9.11931 47.6766 8.2225 46.7798C7.32569 45.883 6.87653 44.8036 6.875 43.5417V11.4583C6.875 10.1979 7.32417 9.11931 8.2225 8.2225C9.12083 7.32569 10.1994 6.87653 11.4583 6.875H43.5417C44.8021 6.875 45.8815 7.32417 46.7798 8.2225C47.6781 9.12083 48.1265 10.1994 48.125 11.4583V26.8125C47.3993 26.4688 46.6545 26.1731 45.8906 25.9256C45.1267 25.6781 44.3438 25.4963 43.5417 25.3802V11.4583H11.4583V43.5417H25.3229C25.4375 44.3819 25.6193 45.184 25.8683 45.9479C26.1174 46.7118 26.413 47.4375 26.7552 48.125H11.4583ZM11.4583 41.25V43.5417V11.4583V25.3802V25.2083V41.25ZM16.0417 38.9583H25.3802C25.4948 38.1563 25.6766 37.3733 25.9256 36.6094C26.1747 35.8455 26.4512 35.1007 26.7552 34.375H16.0417V38.9583ZM16.0417 29.7917H30.0208C31.2431 28.6458 32.6089 27.691 34.1183 26.9271C35.6278 26.1632 37.2411 25.6476 38.9583 25.3802V25.2083H16.0417V29.7917ZM16.0417 20.625H38.9583V16.0417H16.0417V20.625ZM41.25 52.7083C38.0799 52.7083 35.378 51.5908 33.1444 49.3556C30.9108 47.1205 29.7932 44.4186 29.7917 41.25C29.7901 38.0814 30.9077 35.3795 33.1444 33.1444C35.381 30.9092 38.0829 29.7917 41.25 29.7917C44.4171 29.7917 47.1197 30.9092 49.3579 33.1444C51.5961 35.3795 52.7129 38.0814 52.7083 41.25C52.7038 44.4186 51.5862 47.1213 49.3556 49.3579C47.1251 51.5946 44.4232 52.7114 41.25 52.7083ZM40.1042 48.125H42.3958V42.3958H48.125V40.1042H42.3958V34.375H40.1042V40.1042H34.375V42.3958H40.1042V48.125Z" fill="#1D00F8"/>
</svg>
