<svg width="20" height="22" viewBox="0 0 20 22" fill="none" xmlns="http://www.w3.org/2000/svg">
<path d="M4.56515 17.0231H15.1068M4.56515 13.6689H15.1068M12.4081 0.769779C12.838 0.903945 14.218 1.45115 16.2113 3.39513C18.0896 5.22699 18.6967 6.52792 18.875 7.02242C18.9147 8.09624 18.9401 9.34686 18.9401 10.7939C18.9401 14.6584 18.7605 17.1209 18.5966 18.5632C18.4768 19.6183 17.6847 20.407 16.6306 20.5301C15.2817 20.6878 13.0785 20.8564 9.83598 20.8564C6.59346 20.8564 4.39025 20.6878 3.04139 20.5306C1.98723 20.407 1.19517 19.6183 1.07537 18.5632C0.911499 17.1209 0.731812 14.6579 0.731812 10.7939C0.731812 6.92995 0.911499 4.46703 1.07537 3.02474C1.19517 1.96961 1.98723 1.1809 3.04139 1.05728C4.39025 0.900591 6.59346 0.731445 9.83598 0.731445C10.7799 0.731445 11.6357 0.74582 12.4081 0.769779Z" stroke="#FBFBFB" stroke-width="1.46364" stroke-linecap="round" stroke-linejoin="round"/>
<path d="M4.56519 10.2514C5.7976 8.36825 6.82541 7.54121 7.39035 7.19429C7.65725 7.02994 7.97973 7.13727 8.11869 7.41854C8.43637 8.06302 8.73681 8.94852 8.951 9.65146C9.0775 10.0635 9.67933 10.1522 9.94431 9.81198C11.0109 8.44348 12.4714 7.20004 12.4714 7.20004M14.4202 8.07213C14.631 6.95854 14.6392 5.98152 14.6215 5.46402C14.6184 5.35513 14.5739 5.25152 14.4969 5.17445C14.4199 5.09737 14.3163 5.05268 14.2075 5.04954C13.3332 5.02307 12.4587 5.09054 11.5989 5.25079C11.2376 5.31931 11.1178 5.75967 11.3785 6.01986L13.6516 8.2935C13.9118 8.55369 14.3517 8.43342 14.4202 8.07213Z" stroke="#FBFBFB" stroke-width="1.46364" stroke-linecap="round" stroke-linejoin="round"/>
</svg>
