<svg width="22" height="22" viewBox="0 0 22 22" fill="none" xmlns="http://www.w3.org/2000/svg">
<path d="M10.75 13.75C11.5456 13.75 12.3087 13.4339 12.8713 12.8713C13.4339 12.3087 13.75 11.5456 13.75 10.75C13.75 9.95435 13.4339 9.19129 12.8713 8.62868C12.3087 8.06607 11.5456 7.75 10.75 7.75C9.95435 7.75 9.19129 8.06607 8.62868 8.62868C8.06607 9.19129 7.75 9.95435 7.75 10.75C7.75 11.5456 8.06607 12.3087 8.62868 12.8713C9.19129 13.4339 9.95435 13.75 10.75 13.75Z" stroke="#FFF6F6" stroke-width="1.5" stroke-linecap="round" stroke-linejoin="round"/>
<path d="M18.372 9.145L17.275 6.495L18.75 4.75L16.75 2.75L15.015 4.233L12.308 3.12L11.685 0.75H9.731L9.099 3.151L6.454 4.266L4.75 2.75L2.75 4.75L4.203 6.539L3.123 9.196L0.75 9.75V11.75L3.151 12.406L4.266 15.05L2.75 16.75L4.75 18.75L6.541 17.29L9.147 18.362L9.75 20.75H11.75L12.354 18.363L15.005 17.265C15.447 17.582 16.75 18.75 16.75 18.75L18.75 16.75L17.266 15L18.364 12.348L20.75 11.728V9.75L18.372 9.145Z" stroke="#FFF6F6" stroke-width="1.5" stroke-linecap="round" stroke-linejoin="round"/>
</svg>
