<svg width="66" height="66" viewBox="0 0 66 66" fill="none" xmlns="http://www.w3.org/2000/svg">
<g clip-path="url(#clip0_322_1936)">
<path d="M33.8538 0.622009C42.7952 0.622009 50.8897 4.24664 56.7484 10.1054C62.6071 15.9641 66.2318 24.0586 66.2318 33C66.2318 41.9414 62.6088 50.0359 56.7484 55.8947C50.8897 61.7534 42.7952 65.378 33.8538 65.378C24.9123 65.378 16.8195 61.7534 10.9591 55.8947C5.1004 50.0359 1.47577 41.9414 1.47577 33C1.47577 24.0586 5.1004 15.9641 10.9591 10.1054C16.8195 4.24664 24.914 0.622009 33.8538 0.622009ZM55.726 11.1278C50.128 5.52983 42.3964 2.06879 33.8538 2.06879C25.3111 2.06879 17.5796 5.53154 11.9833 11.1278C6.3853 16.7258 2.92426 24.4573 2.92426 33C2.92426 41.5427 6.387 49.2742 11.9833 54.8722C17.5813 60.4702 25.3128 63.9312 33.8555 63.9312C42.3982 63.9312 50.1297 60.4685 55.7277 54.8722C61.3256 49.2742 64.7867 41.5427 64.7867 33C64.7867 24.4573 61.3239 16.7258 55.726 11.1278Z" fill="#D4B579"/>
<path d="M25.3859 20.3318C23.5041 19.5023 16.5964 18.245 22.3932 16.7887C24.1921 16.1808 32.9825 13 32.9825 13C32.9825 13 42.077 16.2951 43.8265 16.8286C45.0513 17.2603 47.7662 17.9099 44.8691 18.8984V22.5981C45.2971 23.041 45.4796 23.5203 45.1208 24.0791L45.857 25.7942C46.6387 27.6462 45.9422 27.3531 44.3738 27.3466C42.3696 27.3383 41.7642 27.6121 42.6621 25.5945L43.3538 24.0332C43.1046 23.4598 43.1545 23.0199 43.6639 22.5981V19.365C42.7304 19.6207 41.7797 19.9928 40.8759 20.3318C40.7298 21.21 40.6146 22.8746 40.4964 23.7782C40.4182 24.5436 40.5988 25.3586 39.7789 25.6467C40.9393 29.3274 39.8296 32.33 36.5304 34.3625C44.3444 34.6618 48 39.9861 48 48.1591C48 51.625 47.6512 52.9785 44.6995 52.9851C43.1439 52.9416 21.931 53.0688 20.9045 52.942C19.3615 52.707 18.246 51.4129 18.183 49.9234C17.109 42.0919 20.7424 34.7208 29.6368 34.3625C26.5226 32.5892 25.0786 29.0995 26.32 25.7543C25.4684 25.3913 25.6914 24.1928 25.618 23.3439C25.5337 22.3693 25.3741 21.3007 25.3859 20.3319L25.3859 20.3318ZM33.093 14.1898L22.4362 18.0439C25.3211 19.0267 30.1603 20.7753 33.093 21.797C35.9088 20.8822 40.8823 19.0214 43.7429 18.0439C43.4308 17.9082 32.9892 14.2342 33.093 14.1898ZM26.6483 20.7909C26.6353 22.0229 26.8903 23.2447 26.9039 24.4749C28.6245 24.0281 30.0121 23.9402 31.7725 24.2645C33.712 24.622 32.5114 24.6059 34.4423 24.2493C36.0084 23.9602 37.7773 23.9876 39.2943 24.4749C39.2794 23.2411 39.5676 22.0196 39.6284 20.7909C37.6742 21.3796 35.1107 22.499 33.1442 23.0164C32.7548 23.0319 27.4855 21.0922 26.6483 20.7909ZM44.2719 25.0469C44.0737 25.4104 43.8919 25.7798 43.7429 26.1653H44.6997C44.6078 25.9443 44.3816 25.183 44.2719 25.0469ZM29.6369 25.2477C28.9977 25.2559 28.3631 25.316 27.7439 25.4765C24.8569 30.9964 31.5127 36.2429 36.2784 33.1297C38.8243 31.5945 39.8973 28.0044 38.3404 25.4765C37.2653 25.0913 35.4234 25.1987 34.3129 25.4755C32.7172 25.873 33.6524 25.9544 32.0242 25.5093C31.2816 25.3063 30.4111 25.1932 29.6369 25.2476V25.2477ZM30.645 34.7959C30.6554 35.8934 29.4412 35.5608 28.5473 35.5548L30.4317 37.3851C31.4275 38.3509 31.6464 38.8324 33.165 38.8408C33.9562 38.8451 34.5432 38.6102 35.0866 38.0651C35.7305 37.4011 37.0083 36.2377 37.6003 35.5548C36.7142 35.6118 35.543 35.8453 35.5719 34.7959C33.7184 35.3451 32.504 35.3403 30.645 34.7959ZM27.1112 35.8732C21.5449 37.0987 19.1689 42.8788 19.1689 47.7868C19.1689 51.5061 19.8224 52.0262 23.5231 51.8139L23.5235 47.1641C23.5234 46.7038 23.4065 45.1236 23.6912 44.8464C23.918 44.6257 24.3482 44.6782 24.5496 44.9037C24.8643 45.2557 24.704 51.0619 24.7129 51.8139H41.4695C41.4692 50.5677 41.4691 47.6171 41.468 46.3417C41.4679 45.9275 41.3061 44.7665 41.6273 44.46C41.9261 44.1749 42.4403 44.3535 42.647 44.6556C42.8049 46.8913 42.6069 49.5217 42.647 51.8139C47.6219 52.1483 46.8441 50.458 46.8441 46.5561C46.8441 41.639 43.9881 37.0136 39.0167 35.8732C36.9734 37.4367 35.9367 40.0647 33.0387 39.9949C31.6047 39.9727 30.9125 39.5387 29.9431 38.5752C29.2262 37.926 27.8644 36.34 27.1112 35.8732L27.1112 35.8732Z" fill="#D0AD6B"/>
</g>
<defs>
<clipPath id="clip0_322_1936">
<rect width="66" height="66" fill="white"/>
</clipPath>
</defs>
</svg>
