<svg width="65" height="65" viewBox="0 0 65 65" fill="none" xmlns="http://www.w3.org/2000/svg">
<path d="M21.8929 11.8436C22.434 11.752 22.9044 11.4195 23.4586 11.3793C24.3227 11.3095 25.1824 11.5094 26.0167 11.7136C26.9174 11.9353 27.7963 12.3429 28.7415 12.3062C28.9161 12.1875 28.9362 11.9187 29.1395 11.8454C29.4869 11.8183 29.87 11.8925 30.1275 12.1439C30.3439 12.3394 30.4871 12.6003 30.6852 12.8124C30.8982 12.9451 31.1783 12.9957 31.3197 13.2226C31.6566 13.7279 31.7081 14.3869 31.5859 14.9682C31.4471 15.4639 30.8894 15.5861 30.4583 15.7048C31.0195 16.6736 31.1975 17.7968 31.4079 18.8799C31.3057 19.0379 31.2054 19.1967 31.1041 19.3556C31.5126 19.9883 32.0162 20.5557 32.4316 21.1849C32.5774 21.4066 32.683 21.706 32.5451 21.9565C32.2719 22.3082 31.7439 22.2139 31.4288 22.5019C31.2595 22.7009 31.4218 22.9584 31.4401 23.1792C31.482 23.3599 31.3101 23.4777 31.2263 23.6139C31.2464 23.7552 31.2909 23.8975 31.2769 24.0424C31.2263 24.2527 31.0701 24.429 31.0649 24.6507C31.0448 25.0696 31.2996 25.4606 31.2377 25.8804C31.1774 26.2112 30.8371 26.3823 30.5333 26.4251C29.9224 26.4914 29.308 26.3744 28.697 26.4224C28.2781 26.4486 28.004 26.8754 27.9936 27.2673C27.9333 27.6504 28.1166 28.0449 28.0093 28.4185C27.73 28.8828 27.4088 29.3314 27.0353 29.7233C26.9925 29.732 26.9052 29.7495 26.8624 29.7582C25.9146 29.3253 25.0445 28.7449 24.1438 28.2256C24.2633 28.3495 24.396 28.4612 24.54 28.5581C25.0383 28.8994 25.4974 29.2965 25.9993 29.6342C25.9312 29.9572 25.6711 30.185 25.5018 30.4555C24.9694 31.1843 24.6203 32.0222 24.1342 32.7797C23.1244 31.2882 22.1294 29.7844 21.1475 28.2736C20.9765 28.0153 20.8473 27.7325 20.726 27.4488C20.8778 27.0962 21.1606 26.823 21.3291 26.48C21.5953 25.9756 21.7585 25.3664 21.5665 24.8087C21.4155 24.3985 20.9791 24.2274 20.7076 23.9158C20.0164 23.1565 19.5137 22.2445 19.1419 21.2914C18.8399 20.5286 18.4262 19.7946 18.2979 18.9751C18.1941 18.3859 18.5877 17.8309 18.4332 17.2461C18.3267 16.7809 18.2604 16.2712 18.4707 15.8235C18.6889 15.2431 19.1541 14.8145 19.4692 14.2918C19.7493 13.7445 19.9937 13.1667 20.3987 12.6963C20.7853 12.2582 21.3177 11.9492 21.8929 11.8436Z" fill="#D0AD6B"/>
<path d="M53.551 17.9137C53.8302 17.4808 54.408 17.0802 54.9168 17.3831C54.9404 17.4363 54.9884 17.5419 55.012 17.5952C54.9264 17.7784 54.8182 17.9495 54.6882 18.104C54.9422 17.7278 55.6072 18.0857 55.3497 18.502C54.7065 19.3564 54.4831 20.4326 53.9036 21.3237C53.6862 21.6789 53.4279 22.007 53.2027 22.357C52.7497 23.0413 52.3893 23.7857 51.8796 24.4316C51.4144 25.0408 50.8593 25.5767 50.265 26.0585C49.8897 26.4084 49.4899 26.7558 49.2525 27.2201C48.6957 28.2884 48.4732 29.4841 48.2619 30.658C47.0706 30.2478 46.0346 29.4492 45.2369 28.4839C45.8339 27.4156 46.1612 26.2278 46.4317 25.0417C46.5653 24.4848 46.4099 23.9149 46.4754 23.3537C46.5251 22.8423 46.6255 22.33 46.8385 21.8595C47.0226 21.4432 47.2556 21.0417 47.3438 20.5905C47.4372 20.0555 47.6013 19.5205 47.521 18.9724C47.5053 18.6573 47.3298 18.337 47.452 18.0263C47.603 17.7601 47.9818 17.8736 48.1921 18.0036C48.6076 18.3056 48.8301 18.8258 48.8711 19.3285C48.9122 19.7108 48.8301 20.0887 48.7865 20.4666C48.7682 20.6019 48.7891 20.7755 48.927 20.8419C49.2587 21.0121 49.6331 20.8716 49.9621 20.7686C50.5128 20.5582 51.0836 20.3749 51.5776 20.0442C52.3858 19.4926 53.0247 18.7306 53.551 17.9137Z" fill="#D0AD6B"/>
<path d="M18.1879 28.7832C18.8914 28.4376 19.5495 28.0117 20.225 27.619C21.0341 29.2065 22.0962 30.644 23.0048 32.174C23.9037 33.566 24.7643 34.9843 25.5594 36.4383C26.1983 37.6454 26.8973 38.821 27.49 40.0516C27.8766 39.8099 28.1969 39.4651 28.6132 39.2705C29.1255 39.2382 29.6309 39.4145 30.1467 39.3822C30.3684 37.5677 30.549 35.7366 30.4251 33.9073C30.3928 32.4314 30.0219 30.994 29.6413 29.5766C31.0387 30.3883 32.5948 30.9084 34.178 31.2104C35.2742 31.4295 35.9663 32.3869 36.8121 33.031C37.4509 33.5896 38.2975 33.7886 39.0935 34.0146C39.6686 34.1744 40.2944 34.3044 40.8783 34.1045C41.5023 33.8855 42.0958 33.5023 42.4554 32.935C42.8935 32.2586 43.2427 31.5307 43.5944 30.8081C43.9121 30.1195 44.2909 29.4614 44.6007 28.7693C44.633 28.73 44.6976 28.6532 44.7299 28.6139C45.6218 29.4902 46.5889 30.3123 47.7104 30.8796C48.4383 31.1965 49.2212 31.4522 50.025 31.4164C49.9202 31.7969 49.7029 32.1303 49.5249 32.4794C48.7533 33.8532 48.0054 35.2418 47.1632 36.5745C46.5487 37.5441 46.0067 38.5574 45.4228 39.5454C45.278 39.7732 45.1322 40.0158 44.9009 40.166C44.4427 40.474 43.885 40.5639 43.3509 40.6434C41.8523 40.845 40.3363 40.8703 38.8273 40.8895C39.2331 40.3082 39.8284 39.7173 40.5973 39.7819C39.7926 39.5175 38.8674 39.8518 38.3944 40.5482C38.5271 39.4503 38.9634 38.4143 39.0533 37.3085C38.9032 38.1952 38.2661 38.8917 38.0374 39.7549C37.9571 38.8987 37.574 38.128 37.1978 37.3713C37.2266 37.7588 37.3444 38.1324 37.3959 38.5164C37.5696 39.6824 37.5722 40.865 37.6665 42.0389C38.7095 42.3156 39.735 42.7886 40.4891 43.5794C40.9246 43.1072 41.4648 42.7459 42.0251 42.4395C42.8857 41.9857 43.8353 41.7465 44.7622 41.4699C46.2179 41.0894 47.5943 40.4662 49.0318 40.0307C49.2971 39.9006 49.5083 40.1642 49.7064 40.3004C49.1592 40.5325 48.6259 40.8074 48.0499 40.9619C48.7638 40.9104 49.4655 40.7525 50.1725 40.6503C50.4753 40.7411 50.7092 40.9768 50.9562 41.1662C49.9796 41.4201 49.0003 41.6724 48.001 41.8251C46.4798 42.1009 44.9341 42.2946 43.4582 42.7703C42.9293 42.9527 42.3943 43.1796 41.9946 43.5837C42.1019 43.6614 42.2084 43.7408 42.3149 43.8211C42.9267 43.4877 43.5612 43.1858 44.2411 43.0182C45.6087 42.6036 47.0226 42.3863 48.4121 42.0634C49.3678 41.9185 50.2973 41.6121 51.2617 41.5327C51.3525 41.654 51.4354 41.7841 51.4965 41.9246C49.4359 42.4666 47.3429 42.8707 45.2736 43.3743C44.3956 43.609 43.4905 43.7941 42.698 44.2593C42.856 44.4033 43.0454 44.5429 43.2741 44.4713C44.4898 44.2724 45.6594 43.856 46.8664 43.6125C48.6486 43.1866 50.4378 42.7878 52.2296 42.402C52.3972 42.3933 52.6145 42.2711 52.7393 42.4387C52.748 42.6263 52.776 42.9414 52.5307 42.985C51.3699 43.3141 50.1917 43.5811 49.0126 43.8368C47.185 44.2898 45.3469 44.6974 43.5228 45.1626C43.2139 45.3214 42.9634 45.654 42.582 45.6391C41.7066 45.6426 40.8329 45.6836 39.9593 45.7142C39.5465 45.7552 39.2986 45.3441 38.9268 45.2429C38.219 45.0491 37.4876 44.9601 36.7754 44.7882C35.7403 44.5455 34.7026 44.3169 33.664 44.0917C31.9786 43.6675 30.282 43.2914 28.601 42.8515C28.258 42.731 27.9455 42.9614 27.634 43.0671C24.478 44.2994 21.2941 45.4611 18.1268 46.6655C17.8135 46.5747 17.4705 46.5381 17.2052 46.333C20.5462 44.8929 24.0224 43.8002 27.4001 42.4535C27.7867 42.3104 28.1882 42.1 28.6123 42.1969C30.2732 42.5696 31.9141 43.0234 33.5776 43.3865C34.5961 43.6195 35.6146 43.8508 36.6358 44.0742C37.8114 44.3212 39.0341 44.46 40.1242 44.9976C40.8844 45.0448 41.6455 44.9034 42.4083 44.92C42.2905 44.7559 42.0906 44.6895 41.9265 44.5857C41.6656 44.4478 41.4063 44.2436 41.0939 44.275C40.6776 44.3204 40.3145 44.5743 40.0492 44.8877C39.6905 44.8074 39.4644 44.4932 39.1432 44.3413C38.2242 43.8752 37.197 43.7024 36.2011 43.4799C34.5734 43.0871 32.9396 42.7153 31.3057 42.3461C30.4207 42.1472 29.5192 42.0215 28.6438 41.778C28.7214 41.4725 28.992 41.2526 29.3167 41.3477C30.9278 41.62 32.5136 42.0354 34.1117 42.3758C35.9148 42.7537 37.6971 43.2189 39.4609 43.7496C39.0952 43.3891 38.6187 43.1718 38.1561 42.9649C37.1926 42.5879 36.1653 42.4282 35.1599 42.2056C33.6675 41.9036 32.1916 41.5275 30.7044 41.2046C30.0655 41.071 29.3699 41.0195 28.7616 41.3006C27.0963 42.0843 25.356 42.6961 23.6332 43.3394C22.3109 43.8019 21.0297 44.3701 19.7127 44.8423C19.9256 44.5804 20.0976 44.2881 20.3236 44.0376C20.5645 43.815 20.8909 43.7269 21.1877 43.6047C22.9995 42.889 24.8402 42.2484 26.6512 41.5292C27.5537 41.1705 28.416 40.7167 29.3298 40.3859C29.7251 40.2297 30.1528 40.2497 30.5621 40.3309C30.3029 40.2323 30.0332 40.1241 29.7504 40.1537C29.0994 40.2026 28.5277 40.5474 27.9229 40.7603C26.3693 41.3494 24.8018 41.8993 23.264 42.5286C22.3869 42.8532 21.5219 43.2137 20.6387 43.52C20.87 43.0854 21.0925 42.6446 21.2837 42.1899C20.9581 42.6516 20.479 42.9667 20.1124 43.3909C19.3775 44.1633 18.5807 44.9453 17.5482 45.2952C17.6564 44.2165 17.9427 42.9047 19.031 42.4064C18.3031 42.436 17.7254 42.9745 17.4208 43.6003C17.3571 42.6935 17.3326 41.7832 17.3134 40.8746C17.1581 41.6741 16.8578 42.4413 16.7775 43.2564C16.6196 44.1598 16.6274 45.0762 16.6379 45.99C15.7608 45.3563 14.7902 44.6415 13.6434 44.7637C14.5747 44.8388 15.2476 45.6121 15.7485 46.3295C15.2964 46.3408 14.8435 46.2518 14.3931 46.3251C14.0204 46.3827 13.667 46.525 13.331 46.6926C14.0903 46.5119 14.8758 46.6341 15.6386 46.7275C17.6468 47.0242 19.6271 47.4842 21.6179 47.8769C22.4654 48.0742 23.3294 48.2042 24.1629 48.4564C23.5023 49.1616 23.2535 50.1592 23.3085 51.1062C23.3111 51.6359 23.4761 52.1544 23.7519 52.6056C22.5536 52.7418 21.3605 52.9407 20.1534 52.9853C18.668 53.0315 17.1834 52.9547 15.6988 52.946C14.4987 52.8866 13.2795 52.9643 12.0995 52.6981C11.1639 52.4782 10.5869 51.649 9.98997 50.9683C9.65657 50.5397 9.22018 50.161 9.04476 49.6347C8.86671 48.7139 9.27255 47.8254 9.34412 46.9169C9.76043 42.7537 10.2928 38.5967 11.1385 34.4973C11.3742 33.642 11.5732 32.7544 12.0384 31.9881C12.4163 31.3597 13.0805 30.9896 13.7403 30.7208C15.2458 30.1291 16.7356 29.4954 18.1879 28.7832Z" fill="#D0AD6B"/>
<path d="M27.7797 29.7215C27.9621 29.2668 28.2301 28.8539 28.5399 28.4778C29.246 29.6272 29.4406 30.9896 29.7496 32.2805C29.4825 31.7716 29.0845 31.351 28.7564 30.8823C28.4631 30.4686 28.1149 30.1003 27.7797 29.7215Z" fill="#D0AD6B"/>
<path d="M48.804 29.7206C49.1077 30.1274 49.4376 30.5201 49.6768 30.9713C49.3233 30.9591 48.975 30.8928 48.6382 30.788C48.6931 30.432 48.7333 30.0732 48.804 29.7206Z" fill="#D0AD6B"/>
<path d="M25.329 31.3632C25.6868 31.666 25.9993 32.0177 26.3685 32.3075C26.4653 32.4044 26.6111 32.4707 26.6643 32.6025C26.4583 34.2983 26.7298 36.0002 26.8729 37.6899L26.9829 37.7693C26.9602 37.7772 26.9131 37.7929 26.8895 37.8007C26.5325 37.1112 26.1703 36.4252 25.8038 35.741C25.2696 34.8211 24.7285 33.9055 24.2275 32.9673C24.5889 32.4288 24.9354 31.8798 25.329 31.3632Z" fill="#D0AD6B"/>
<path d="M28.3435 32.4289C28.5163 32.1051 28.683 31.7769 28.8689 31.461C29.1753 31.8066 29.431 32.2081 29.8063 32.4865C30.0411 34.0078 29.9512 35.5569 29.8578 37.0878C29.781 36.8739 29.7417 36.6488 29.7059 36.4262C29.4712 35.0315 29.0461 33.6621 28.3435 32.4289Z" fill="#D0AD6B"/>
<path d="M32.2204 46.3199C32.5739 46.196 32.9518 45.9682 33.3358 46.1096C33.7408 46.3199 33.7765 46.9815 33.4152 47.2555C32.6489 47.8473 31.6627 48.0052 30.81 48.4285C30.6119 48.5403 30.3928 48.6511 30.2723 48.8527C31.0954 48.7986 31.9228 48.7017 32.7161 48.4661C33.5348 48.2295 34.3395 47.9494 35.1459 47.6727C35.735 47.4694 36.2901 47.1822 36.8644 46.9422C37.1996 46.8244 37.6141 46.7031 37.9353 46.9221C38.1291 47.0417 38.1317 47.3192 38.0034 47.4877C37.7861 47.8054 37.4195 47.966 37.0983 48.1545C36.3861 48.5202 35.6958 48.926 34.9722 49.2708C34.6519 49.4462 34.3037 49.6173 34.0846 49.9201C34.6834 49.537 35.3632 49.3083 36.0431 49.1145C36.8985 48.8641 37.6857 48.4242 38.4057 47.9031C38.8063 47.6448 39.2043 47.3079 39.7001 47.273C39.8903 47.2477 40.1609 47.369 40.1041 47.6003C40.0055 47.8263 39.7961 47.9782 39.6224 48.1449C38.9058 48.7532 38.1037 49.2507 37.3217 49.7682C36.4725 50.3225 35.4182 50.3678 34.521 50.8147C33.6168 51.2214 32.7824 51.8795 31.7587 51.9406C30.3326 52.0261 28.9038 52.013 27.476 52.02C26.5386 52.0305 25.5899 51.9956 24.6683 52.1972C24.4789 52.2338 24.2921 52.2984 24.0975 52.2975C23.6943 51.6595 23.7021 50.8601 23.813 50.1383C23.8749 49.8529 23.909 49.5151 24.1542 49.3205C24.629 49.1896 25.185 49.1206 25.507 48.7C25.809 48.2749 26.1939 47.9075 26.6521 47.6535C27.5022 47.1246 28.5198 47.0565 29.4825 46.9047C30.398 46.7319 31.3494 46.6751 32.2204 46.3199Z" fill="#D0AD6B"/>
<path d="M32.378 0C41.3194 0 49.4139 3.62463 55.2727 9.48335C61.1314 15.3421 64.756 23.4366 64.756 32.378C64.756 41.3194 61.1331 49.4139 55.2727 55.2727C49.4139 61.1314 41.3194 64.756 32.378 64.756C23.4366 64.756 15.3438 61.1314 9.48335 55.2727C3.62463 49.4139 0 41.3194 0 32.378C0 23.4366 3.62463 15.3421 9.48335 9.48335C15.3438 3.62463 23.4383 0 32.378 0ZM54.2502 10.5058C48.6522 4.90782 40.9207 1.44679 32.378 1.44679C23.8353 1.44679 16.1038 4.90953 10.5075 10.5058C4.90953 16.1038 1.44849 23.8353 1.44849 32.378C1.44849 40.9207 4.91123 48.6522 10.5075 54.2502C16.1055 59.8482 23.837 63.3092 32.3797 63.3092C40.9224 63.3092 48.6539 59.8465 54.2519 54.2502C59.8499 48.6522 63.3109 40.9207 63.3109 32.378C63.3109 23.8353 59.8482 16.1038 54.2502 10.5058Z" fill="#D4B579"/>
</svg>
