<svg width="49" height="44" viewBox="0 0 49 44" fill="none" xmlns="http://www.w3.org/2000/svg">
<path d="M6.19995 1.70001H3.94995C3.35321 1.70001 2.78092 1.93707 2.35896 2.35902C1.937 2.78098 1.69995 3.35328 1.69995 3.95001V35.45L5.07495 42.2L8.44995 35.45V3.95001C8.44995 3.35328 8.2129 2.78098 7.79094 2.35902C7.36898 1.93707 6.79669 1.70001 6.19995 1.70001Z" stroke="#1D00F8" stroke-width="3.4" stroke-linejoin="round"/>
<path d="M44.4499 21.9523V12.9523C44.4499 7.64676 44.4499 4.99626 42.8029 3.34701C41.1537 1.70001 38.5032 1.70001 33.1999 1.70001H26.4499C21.1467 1.70001 18.494 1.70001 16.847 3.34701C15.2 4.99626 15.2 7.64676 15.2 12.9523V30.9523C15.2 36.2578 15.2 38.9105 16.847 40.5598C18.242 41.9548 20.3592 42.1663 24.2 42.2M24.2 10.7H35.4499M24.2 19.7H35.4499" stroke="#1D00F8" stroke-width="3.4" stroke-linecap="round" stroke-linejoin="round"/>
<path d="M28.6999 37.7004C28.6999 37.7004 32.0749 38.8254 34.3249 42.2004C34.3249 42.2004 37.6999 33.2004 46.6999 28.7004M1.69995 10.7004H8.44995" stroke="#1D00F8" stroke-width="3.4" stroke-linecap="round" stroke-linejoin="round"/>
</svg>
