<svg width="48" height="52" viewBox="0 0 48 52" fill="none" xmlns="http://www.w3.org/2000/svg">
<path d="M10.9167 40.7083H36.125M10.9167 32.6875H36.125M29.6717 1.84167C30.6995 2.1625 33.9995 3.47104 38.7661 8.11969C43.2578 12.5002 44.7096 15.6111 45.1358 16.7936C45.2309 19.3615 45.2917 22.3521 45.2917 25.8125C45.2917 35.0536 44.862 40.9421 44.4701 44.391C44.1836 46.9142 42.2896 48.8002 39.7688 49.0947C36.5432 49.4717 31.2747 49.875 23.5208 49.875C15.767 49.875 10.4984 49.4717 7.27292 49.0958C4.75208 48.8002 2.85802 46.9142 2.57156 44.391C2.17969 40.9421 1.75 35.0525 1.75 25.8125C1.75 16.5725 2.17969 10.6829 2.57156 7.23396C2.85802 4.71083 4.75208 2.82479 7.27292 2.52917C10.4984 2.15448 15.767 1.75 23.5208 1.75C25.7781 1.75 27.8246 1.78437 29.6717 1.84167Z" stroke="#00BC3C" stroke-width="3.5" stroke-linecap="round" stroke-linejoin="round"/>
<path d="M10.9166 24.5154C13.8637 20.0123 16.3215 18.0346 17.6725 17.205C18.3107 16.812 19.0818 17.0686 19.4141 17.7413C20.1738 19.2824 20.8923 21.3999 21.4044 23.0808C21.7069 24.0663 23.1461 24.2782 23.7797 23.4647C26.3304 20.1922 29.8229 17.2188 29.8229 17.2188M34.483 19.3042C34.9871 16.6413 35.0066 14.3049 34.9642 13.0674C34.957 12.807 34.8504 12.5592 34.6663 12.3749C34.4823 12.1906 34.2346 12.0838 33.9742 12.0763C31.8837 12.0129 29.7924 12.1743 27.7363 12.5575C26.8724 12.7214 26.5859 13.7744 27.2092 14.3966L32.6451 19.8335C33.2672 20.4557 34.3191 20.1681 34.483 19.3042Z" stroke="#00BC3C" stroke-width="3.5" stroke-linecap="round" stroke-linejoin="round"/>
</svg>
